<svg xmlns="http://www.w3.org/2000/svg" id="Layer_1" viewBox="0 0 850.74 85.59"><path d="M0,67.23h9.53V18.36H.72V1.07h38.14v17.28h-8.7v48.87h9.42v17.28H0v-17.28Z"></path><path d="M50.7,1.07h14.31l21.45,39.34V1.07h20.15v83.44h-14.19l-21.57-39.58v39.58h-20.15V1.07Z"></path><path d="M119.98,1.07h14.31l21.45,39.34V1.07h20.15v83.44h-14.19l-21.57-39.58v39.58h-20.15V1.07Z"></path><path d="M194.66,74.32c-5.4-7.51-8.1-18.02-8.1-31.53s2.7-24.02,8.1-31.53c5.41-7.51,13-11.27,22.77-11.27s17.48,3.76,22.89,11.27c5.41,7.51,8.11,18.02,8.11,31.53s-2.7,24.02-8.11,31.53c-5.4,7.51-13.03,11.27-22.89,11.27s-17.36-3.76-22.77-11.27ZM210.22,60.97c1.55,3.93,3.95,5.9,7.21,5.9s5.68-1.97,7.27-5.9c1.59-3.93,2.39-9.99,2.39-18.18s-.8-14.25-2.39-18.18c-1.59-3.93-4.01-5.9-7.27-5.9s-5.66,1.97-7.21,5.9c-1.55,3.93-2.32,9.99-2.32,18.18s.77,14.25,2.32,18.18Z"></path><path d="M251.55,1.07h21.46l10.97,48.99,10.84-48.99h21.46l-23.49,83.44h-17.88L251.55,1.07Z"></path><path d="M324.62,1.07h41.01v16.93h-20.39v16.33h18.24v15.97h-18.24v17.17h20.74v17.05h-41.37V1.07Z"></path><path d="M377.75,1.07h14.31l21.45,39.34V1.07h20.15v83.44h-14.19l-21.57-39.58v39.58h-20.15V1.07Z"></path><path d="M457.49,20.03h-15.26V1.07h51.14v18.95h-15.26v64.49h-20.63V20.03Z"></path><path d="M525.19,1.07h34.45v6.8h-27.06v33.14h25.03v6.79h-25.03v36.72h-7.39V1.07Z"></path><path d="M581.23,74.2c-4.81-7.43-7.21-17.9-7.21-31.41s2.4-23.98,7.21-31.41c4.81-7.43,11.62-11.15,20.44-11.15s15.52,3.72,20.32,11.15c4.81,7.43,7.21,17.9,7.21,31.41s-2.4,23.98-7.21,31.41c-4.81,7.43-11.58,11.15-20.32,11.15s-15.63-3.71-20.44-11.15ZM586.77,69.2c3.42,6.08,8.39,9.12,14.9,9.12s11.37-3.04,14.78-9.12c3.42-6.08,5.13-14.88,5.13-26.4s-1.71-20.32-5.13-26.4c-3.42-6.08-8.35-9.12-14.78-9.12s-11.48,3.04-14.9,9.12-5.12,14.88-5.12,26.4,1.71,20.32,5.12,26.4Z"></path><path d="M649.16,1.07h21.22c6.99,0,12.55,2.33,16.69,6.97,4.13,4.65,6.2,10.91,6.2,18.77,0,6.44-1.41,11.84-4.23,16.21-2.82,4.37-6.73,7.23-11.75,8.58l17.05,32.9h-8.22l-16.45-31.95h-13.11v31.95h-7.39V1.07ZM669.3,45.89c5.33,0,9.38-1.63,12.16-4.89s4.17-7.95,4.17-14.07-1.39-10.92-4.17-14.18c-2.78-3.26-6.83-4.89-12.16-4.89h-12.87v38.02h12.87Z"></path><path d="M718.47,78.14c-4.21-4.81-6.32-11.42-6.32-19.85V1.07h7.51v56.98c0,6.52,1.39,11.52,4.17,15.02,2.78,3.5,6.8,5.24,12.04,5.24s9.14-1.75,11.92-5.24c2.78-3.5,4.17-8.5,4.17-15.02V1.07h7.51v57.22c0,8.43-2.11,15.04-6.32,19.85-4.21,4.81-9.97,7.21-17.28,7.21s-13.19-2.4-17.4-7.21Z"></path><path d="M787.09,1.07h5.13l21.69,52.45,21.81-52.45h5.01l10.01,83.44h-7.51l-7.75-65.08-19.19,45.77h-4.65l-19.31-46.01-7.63,65.32h-7.51l9.89-83.44Z"></path></svg>