<svg xmlns:xlink="http://www.w3.org/1999/xlink" width="139" height="26" viewBox="0 0 139 26" fill="none" xmlns="http://www.w3.org/2000/svg">
  <g id="Logo-Piraeus" clip-path="url(#clip0_6271_619)" fill="none">
    <g id="Union" fill="none">
      <path fill-rule="evenodd" clip-rule="evenodd" d="M44.7363 25.0718H35.7955V24.8946L38.3051 23.5083V2.81177L35.7955 1.42549V1.24836H44.4952C50.9928 1.24836 54.329 3.95043 54.329 8.32435C54.329 13.0182 50.9945 15.6136 44.4952 15.6136H41.8825V23.5083L44.7363 24.8946V25.0718ZM50.479 8.43099C50.479 4.5541 48.45 3.16783 44.427 3.16783H41.8825V13.6941H44.427C48.45 13.6941 50.479 12.3079 50.479 8.43099Z" fill="#002F30"></path>
      <path d="M61.0677 2.73947C61.0677 3.98477 60.1066 4.98065 58.9025 4.98065C57.6983 4.98065 56.7354 3.98477 56.7354 2.73947C56.7354 1.49417 57.7001 0.498291 58.9025 0.498291C60.1048 0.498291 61.0677 1.49417 61.0677 2.73947Z" fill="#002F30"></path>
      <path d="M63.3396 25.0718H55.1556V24.8964L57.5271 23.6168V9.88956L55.3618 8.53762V8.35869L60.7951 7.07905H60.9664V23.615L63.3396 24.8946V25.0718Z" fill="#002F30"></path>
      <path d="M63.4777 25.0718H63.4759L63.4777 25.0736V25.0718Z" fill="#002F30"></path>
      <path d="M63.4777 25.0718H72.3468V24.8946L69.2867 23.615V16.0058C69.2867 11.7747 70.5241 9.67629 73.0354 9.67629C74.2395 9.67629 74.8581 10.0667 75.4418 10.636H75.5799V7.15134C75.0643 6.97422 74.4107 6.90192 73.827 6.90192C71.7299 6.90192 70.0103 8.57377 69.2885 11.1692V7.07905H69.1172L63.6839 8.35869V8.53762L65.8509 9.88956V23.6168L63.4777 24.8964V25.0718Z" fill="#002F30"></path>
      <path fill-rule="evenodd" clip-rule="evenodd" d="M88.9875 13.6923V23.0095H88.9858L91.1528 24.2548V24.4319L85.9607 25.3555H85.7894V22.0841C85.0659 24.0759 83.0369 25.4983 80.7685 25.4983C77.2611 25.4983 75.3352 23.4361 75.3352 20.6273C75.3352 17.4626 77.5023 15.7202 81.7996 14.7244L85.5482 13.8713V12.7326C85.5482 10.5637 84.4141 9.21178 81.5602 9.21178C79.2918 9.21178 77.6403 9.99258 76.5061 11.6644L76.3349 11.5939C76.8504 8.64245 79.0856 6.86397 82.3169 6.86397C86.5461 6.86397 88.9875 8.96236 88.9875 13.6923ZM78.9475 19.9875C78.9475 21.8724 80.1163 23.0814 81.9386 23.0818C84.2082 23.0814 85.5482 21.4457 85.5482 18.6717V15.5431L81.9726 16.3962C79.9454 16.8932 78.9475 17.8891 78.9475 19.9875Z" fill="#002F30"></path>
      <path fill-rule="evenodd" clip-rule="evenodd" d="M106.284 21.1623C104.84 24.2548 102.844 25.5001 99.613 25.5001H99.6113C94.5921 25.5001 91.6002 21.5527 91.6002 16.3619C91.6002 10.8854 94.5921 6.86758 99.475 6.86758C103.91 6.86758 106.317 9.9962 106.317 15.4021H95.0046C95.0046 20.4159 96.9304 22.977 101.228 22.977C103.189 22.977 104.77 22.5848 106.146 21.0557L106.284 21.1623ZM98.9944 8.71475C96.5879 8.71475 95.3156 10.28 95.0745 13.7646H102.811C102.811 10.4932 101.539 8.71475 98.9944 8.71475Z" fill="#002F30"></path>
      <path d="M119.555 21.8022C118.627 24.2904 116.805 25.4995 114.503 25.5001C110.755 25.4993 108.968 23.1173 108.968 19.1706V9.88956L106.801 8.53762V8.35869L112.234 7.07905H112.406V19.3495C112.406 21.5184 113.264 23.0475 115.534 23.0475C118.284 23.0475 119.557 20.4159 119.557 16.6113V9.35638L117.563 8.11108V7.93395L122.823 7.00856H122.994V23.0113L125.16 24.2566V24.4337L119.726 25.3573H119.555V21.8022Z" fill="#002F30"></path>
      <path d="M138.569 19.8104C138.569 23.5083 136.163 25.5001 132.14 25.5001L132.138 25.4965C129.663 25.4965 127.531 24.9995 126.018 24.2168V19.8791H126.189C127.393 22.2269 129.422 23.6493 132.241 23.6493C134.854 23.6493 136.126 22.9011 136.126 21.0882C136.126 19.4869 134.854 18.6338 132.035 17.7807L131.552 17.6379C127.737 16.501 126.086 15.0063 126.086 11.9843C126.086 8.96236 128.354 6.86397 132.103 6.86397C134.097 6.86397 136.056 7.36281 137.776 8.17976V12.1633H137.604C136.4 9.88775 134.441 8.71475 132 8.71475C129.696 8.71475 128.527 9.35457 128.527 11.0264C128.527 12.6983 129.663 13.517 132.791 14.4406L133.274 14.5834C136.849 15.6498 138.569 17.3559 138.569 19.8104Z" fill="#002F30"></path>
      <path d="M8.38778 1.44357V1.25198H15.2751L6.04599 23.765L8.07496 24.8838V25.0736H1.18588L10.4168 2.56235L8.38778 1.44357Z" fill="#002F30"></path>
      <path d="M23.2477 1.25199H16.3604V1.44357L18.3894 2.56235L9.15848 25.0736H16.0476V24.8838L14.0168 23.765L23.2477 1.25199Z" fill="#002F30"></path>
      <path d="M24.333 1.25199H31.2203L21.9894 23.765L24.0202 24.8838V25.0736H17.1311L26.362 2.56235L24.333 1.44357V1.25199Z" fill="#002F30"></path>
    </g>
  </g>
  <defs>
    <clipPath id="clip0_6271_619">
      <rect width="138.138" height="25" fill="white" transform="translate(0.43103 0.5)"></rect>
    </clipPath>
  </defs>
</svg>